HIERARCHY
ROOT Hips
{
  OFFSET 5.84602e-005 68.8428 3.50346
  CHANNELS 6 Xposition Yposition Zposition Zrotation Xrotation Yrotation
  JOINT Spine
  {
    OFFSET 0 8.597 -4.6522
    CHANNELS 3 Zrotation Xrotation Yrotation
    JOINT Spine1
    {
      OFFSET 0 7.8454 0.4098
      CHANNELS 3 Zrotation Xrotation Yrotation
      JOINT Spine2
      {
        OFFSET 0 9.7078 -2.1609
        CHANNELS 3 Zrotation Xrotation Yrotation
        JOINT Neck
        {
          OFFSET 0 21.8761 -0.4549
          CHANNELS 3 Zrotation Xrotation Yrotation
          JOINT Head
          {
            OFFSET 0 12.3537 3.3602
            CHANNELS 3 Zrotation Xrotation Yrotation
            End Site
            {
              OFFSET 0.0001 18.9506 0.5657
            }
          }
        }
        JOINT LeftShoulder
        {
          OFFSET 2.2086 21.1115 7.2329
          CHANNELS 3 Zrotation Xrotation Yrotation
          JOINT LeftArm
          {
            OFFSET 13.1193 3.0282 -4.8998
            CHANNELS 3 Zrotation Xrotation Yrotation
            JOINT LeftForeArm
            {
              OFFSET 27.4081 -0.0973053 -0.2375
              CHANNELS 3 Zrotation Xrotation Yrotation
              JOINT LeftHand
              {
                OFFSET 22.8641 0.0662994 -0.1369
                CHANNELS 3 Zrotation Xrotation Yrotation
                JOINT LeftHandIndex1
                {
                  OFFSET 8.8614 0.775009 2.4612
                  CHANNELS 3 Zrotation Xrotation Yrotation
                  JOINT LeftHandIndex2
                  {
                    OFFSET 3.3146 -0.808304 0.5841
                    CHANNELS 3 Zrotation Xrotation Yrotation
                    JOINT LeftHandIndex3
                    {
                      OFFSET 2.2628 -0.552002 0.3989
                      CHANNELS 3 Zrotation Xrotation Yrotation
                      End Site
                      {
                        OFFSET 1.6102 -0.4807 0.2612
                      }
                    }
                  }
                }
                JOINT LeftHandMiddle1
                {
                  OFFSET 8.9937 0.895004 0.2143
                  CHANNELS 3 Zrotation Xrotation Yrotation
                  JOINT LeftHandMiddle2
                  {
                    OFFSET 4.0984 0.0113983 -0.0242
                    CHANNELS 3 Zrotation Xrotation Yrotation
                    JOINT LeftHandMiddle3
                    {
                      OFFSET 2.2716 0.00689697 -0.0138001
                      CHANNELS 3 Zrotation Xrotation Yrotation
                      End Site
                      {
                        OFFSET 2.0404 -0.1441 0.0027
                      }
                    }
                  }
                }
                JOINT LeftHandRing1
                {
                  OFFSET 8.5234 0.597198 -2.0164
                  CHANNELS 3 Zrotation Xrotation Yrotation
                  JOINT LeftHandRing2
                  {
                    OFFSET 3.7188 -0.188293 -0.2328
                    CHANNELS 3 Zrotation Xrotation Yrotation
                    JOINT LeftHandRing3
                    {
                      OFFSET 2.1191 -0.106598 -0.1332
                      CHANNELS 3 Zrotation Xrotation Yrotation
                      End Site
                      {
                        OFFSET 1.8737 -0.2304 -0.0886
                      }
                    }
                  }
                }
                JOINT LeftHandPinky1
                {
                  OFFSET 7.9094 -0.601089 -3.4825
                  CHANNELS 3 Zrotation Xrotation Yrotation
                  JOINT LeftHandPinky2
                  {
                    OFFSET 2.2874 -0.477005 -0.6314
                    CHANNELS 3 Zrotation Xrotation Yrotation
                    JOINT LeftHandPinky3
                    {
                      OFFSET 1.6774 -0.349396 -0.4633
                      CHANNELS 3 Zrotation Xrotation Yrotation
                      End Site
                      {
                        OFFSET 1.4888 -0.4091 -0.3416
                      }
                    }
                  }
                }
                JOINT LeftHandThumb1
                {
                  OFFSET 1.833 -1.3875 1.3896
                  CHANNELS 3 Zrotation Xrotation Yrotation
                  JOINT LeftHandThumb2
                  {
                    OFFSET 3.4129 -1.121 2.5732
                    CHANNELS 3 Zrotation Xrotation Yrotation
                    JOINT LeftHandThumb3
                    {
                      OFFSET 2.2474 -0.804199 1.6192
                      CHANNELS 3 Zrotation Xrotation Yrotation
                      End Site
                      {
                        OFFSET 1.6527 -0.5689 1.1317
                      }
                    }
                  }
                }
              }
            }
          }
        }
        JOINT RightShoulder
        {
          OFFSET -2.2086 21.1115 7.2329
          CHANNELS 3 Zrotation Xrotation Yrotation
          JOINT RightArm
          {
            OFFSET -13.1216 3.0287 -4.9007
            CHANNELS 3 Zrotation Xrotation Yrotation
            JOINT RightForeArm
            {
              OFFSET -27.4081 -0.0973053 -0.2375
              CHANNELS 3 Zrotation Xrotation Yrotation
              JOINT RightHand
              {
                OFFSET -22.8641 0.0664063 -0.1369
                CHANNELS 3 Zrotation Xrotation Yrotation
                JOINT RightHandIndex1
                {
                  OFFSET -8.8614 0.774994 2.4612
                  CHANNELS 3 Zrotation Xrotation Yrotation
                  JOINT RightHandIndex2
                  {
                    OFFSET -3.3146 -0.808304 0.5841
                    CHANNELS 3 Zrotation Xrotation Yrotation
                    JOINT RightHandIndex3
                    {
                      OFFSET -2.2628 -0.552002 0.3989
                      CHANNELS 3 Zrotation Xrotation Yrotation
                      End Site
                      {
                        OFFSET -1.6102 -0.4807 0.2612
                      }
                    }
                  }
                }
                JOINT RightHandMiddle1
                {
                  OFFSET -8.9937 0.894989 0.2143
                  CHANNELS 3 Zrotation Xrotation Yrotation
                  JOINT RightHandMiddle2
                  {
                    OFFSET -4.0984 0.0113983 -0.0242
                    CHANNELS 3 Zrotation Xrotation Yrotation
                    JOINT RightHandMiddle3
                    {
                      OFFSET -2.2716 0.00691223 -0.0138001
                      CHANNELS 3 Zrotation Xrotation Yrotation
                      End Site
                      {
                        OFFSET -2.0404 -0.1441 0.0027
                      }
                    }
                  }
                }
                JOINT RightHandRing1
                {
                  OFFSET -8.5234 0.597198 -2.0164
                  CHANNELS 3 Zrotation Xrotation Yrotation
                  JOINT RightHandRing2
                  {
                    OFFSET -3.7188 -0.188309 -0.2328
                    CHANNELS 3 Zrotation Xrotation Yrotation
                    JOINT RightHandRing3
                    {
                      OFFSET -2.1191 -0.106598 -0.1332
                      CHANNELS 3 Zrotation Xrotation Yrotation
                      End Site
                      {
                        OFFSET -1.8737 -0.2304 -0.0886
                      }
                    }
                  }
                }
                JOINT RightHandPinky1
                {
                  OFFSET -7.9094 -0.601105 -3.4825
                  CHANNELS 3 Zrotation Xrotation Yrotation
                  JOINT RightHandPinky2
                  {
                    OFFSET -2.2874 -0.477005 -0.6314
                    CHANNELS 3 Zrotation Xrotation Yrotation
                    JOINT RightHandPinky3
                    {
                      OFFSET -1.6774 -0.349396 -0.4633
                      CHANNELS 3 Zrotation Xrotation Yrotation
                      End Site
                      {
                        OFFSET -1.4888 -0.4091 -0.3416
                      }
                    }
                  }
                }
                JOINT RightHandThumb1
                {
                  OFFSET -1.833 -1.38751 1.3896
                  CHANNELS 3 Zrotation Xrotation Yrotation
                  JOINT RightHandThumb2
                  {
                    OFFSET -3.41299 -1.12099 2.5732
                    CHANNELS 3 Zrotation Xrotation Yrotation
                    JOINT RightHandThumb3
                    {
                      OFFSET -2.24741 -0.804108 1.6192
                      CHANNELS 3 Zrotation Xrotation Yrotation
                      End Site
                      {
                        OFFSET -1.6527 -0.5689 1.1317
                      }
                    }
                  }
                }
              }
            }
          }
        }
      }
    }
  }
  JOINT RightUpLeg
  {
    OFFSET -9.1966 3.8861 -0.7581
    CHANNELS 3 Zrotation Xrotation Yrotation
    JOINT RightLeg
    {
      OFFSET -0.7359 -41.0265 0
      CHANNELS 3 Zrotation Xrotation Yrotation
      JOINT RightFoot
      {
        OFFSET 0 -40.2855 0
        CHANNELS 3 Zrotation Xrotation Yrotation
        JOINT RightToeBase
        {
          OFFSET 0 -5.6122 11.7359
          CHANNELS 3 Zrotation Xrotation Yrotation
          End Site
          {
            OFFSET 0 0 7.8731
          }
        }
      }
    }
  }
  JOINT LeftUpLeg
  {
    OFFSET 9.1965 3.8864 -0.7581
    CHANNELS 3 Zrotation Xrotation Yrotation
    JOINT LeftLeg
    {
      OFFSET 0.7359 -41.0268 0
      CHANNELS 3 Zrotation Xrotation Yrotation
      JOINT LeftFoot
      {
        OFFSET 0 -40.2855 0
        CHANNELS 3 Zrotation Xrotation Yrotation
        JOINT LeftToeBase
        {
          OFFSET 0 -5.6122 11.7359
          CHANNELS 3 Zrotation Xrotation Yrotation
          End Site
          {
            OFFSET 0 0 7.8731
          }
        }
      }
    }
  }
}
MOTION
Frames:	6
Frame Time:	0.0333333
1.62945 27.4477 0.690724 0 17.024 -0 0.2376 0.518871 -0.259893 0.477581 1.03669 -0.521969 0.477582 1.03669 -0.52197 -3.35029e-005 13.1745 2.53543e-005 -3.40158e-007 -5.44173 7.63829e-008 -5.84661 2.73706 -33.8291 -49.0413 -5.20316 26.7656 -26.1733 26.2656 -76.2998 41.598 -21.0797 -5.64324 2.98177e-016 1.59028e-015 6.36111e-015 -4.96962e-016 3.52843e-015 -0 -1.2921e-015 2.08724e-015 3.18055e-015 2.98177e-016 1.59028e-015 6.36111e-015 -0.0146267 -9.06111e-005 9.51165e-006 7.95139e-016 4.96962e-017 6.36111e-015 2.98177e-016 1.59028e-015 6.36111e-015 -0.0187584 -0.00117746 6.50442e-005 -4.96962e-017 1.49089e-015 6.36111e-015 2.98177e-016 1.59028e-015 6.36111e-015 -0.0122456 -0.00324152 0.000673033 4.96962e-016 -9.93923e-017 -0 2.98177e-016 1.59028e-015 6.36111e-015 -4.96962e-016 3.52843e-015 -0 -1.2921e-015 2.08724e-015 3.18055e-015 4.41756 2.81591 33.1181 47.2377 -4.63967 -25.6208 26.1713 26.2622 76.2951 -38.7636 -22.0119 6.08017 -7.95139e-016 1.19271e-015 -1.27222e-014 -1.19271e-015 1.2921e-015 -1.59028e-014 -3.97569e-016 6.95746e-016 -6.36111e-015 -7.95139e-016 1.19271e-015 -1.27222e-014 0.0150008 -9.41306e-005 -1.51451e-006 1.98785e-016 5.96354e-016 9.54166e-015 -7.95139e-016 1.19271e-015 -1.27222e-014 0.0189899 -0.0011916 -6.18322e-005 -9.93923e-016 -9.93923e-016 1.27222e-014 -7.95139e-016 1.19271e-015 -1.27222e-014 0.012271 -0.0032476 -0.000677771 3.1163e-007 -2.02687e-007 7.85024e-008 -7.95139e-016 1.19271e-015 -1.27222e-014 -1.19271e-015 1.2921e-015 -1.59028e-014 -3.97569e-016 6.95746e-016 -6.36111e-015 -7.9849 -19.0855 -16.6393 -168.792 78.6479 166.191 20.5864 44.7879 -26.976 2.63976e-007 -4.21337e-007 -1.25469e-007 8.03602 -19.5428 16.6433 169.099 78.482 -166.456 -20.4108 44.6794 26.9305 1.40799e-007 -1.36178e-007 4.96324e-007 
1.62945 27.4411 0.55616 0 17.375 -0 0.238544 0.381851 -0.259079 0.47883 0.762665 -0.519762 0.478829 0.762667 -0.519762 -0.000186675 13.879 0.000161217 -2.30209e-007 -5.24907 2.66114e-007 -5.95284 2.97613 -33.7486 -48.9783 -5.18276 26.7256 -26.1733 26.2656 -76.2997 41.5284 -21.0385 -5.54432 6.4605e-016 -2.98177e-016 6.36111e-015 -1.44119e-015 9.93923e-017 3.18055e-015 4.96962e-017 1.54058e-015 3.18055e-015 6.4605e-016 -2.98177e-016 6.36111e-015 -0.0146251 -9.47638e-005 2.95094e-006 3.97569e-016 -4.96962e-016 -6.36111e-015 6.4605e-016 -2.98177e-016 6.36111e-015 -0.0187727 -0.00118155 6.29413e-005 8.49804e-015 1.05356e-014 -6.36111e-015 6.4605e-016 -2.98177e-016 6.36111e-015 -0.0122785 -0.0032512 0.000678308 5.46658e-016 -1.98785e-016 6.36111e-015 6.4605e-016 -2.98177e-016 6.36111e-015 -1.44119e-015 9.93923e-017 3.18055e-015 4.96962e-017 1.54058e-015 3.18055e-015 4.57494 3.05228 33.0653 47.2377 -4.63968 -25.6208 26.1713 26.2622 76.2951 -38.7951 -21.9403 5.96409 -3.13536e-007 1.94274e-007 -7.96763e-008 -0 -7.95139e-016 -0 3.97569e-016 -7.95139e-016 3.18055e-015 -3.13536e-007 1.94274e-007 -7.96763e-008 0.0149778 -9.47301e-005 1.01759e-006 -3.97569e-016 -5.96354e-016 1.27222e-014 -3.13536e-007 1.94274e-007 -7.96763e-008 0.0189897 -0.00118939 -5.99421e-005 1.98785e-016 2.98177e-016 -6.36111e-015 -3.13536e-007 1.94274e-007 -7.96763e-008 0.0122709 -0.00324616 -0.000679184 1.98785e-016 -4.96962e-016 3.18055e-015 -3.13536e-007 1.94274e-007 -7.96763e-008 -0 -7.95139e-016 -0 3.97569e-016 -7.95139e-016 3.18055e-015 -8.02803 -19.5851 -16.7338 -168.886 78.4861 166.275 20.5927 44.7876 -26.9844 2.77857e-008 2.72502e-008 9.9365e-008 8.08054 -20.0444 16.7389 169.187 78.3207 -166.535 -20.417 44.6791 26.9388 -1.59028e-015 -3.18055e-015 1.59028e-015 
1.62945 27.4348 0.421562 0 17.7259 -0 0.239436 0.244787 -0.258199 0.47998 0.488498 -0.517425 0.479981 0.488497 -0.517426 9.38225e-006 14.5835 -8.2552e-006 -5.62152e-008 -5.05649 1.35266e-007 -6.05914 3.21549 -33.6678 -48.9153 -5.16239 26.6856 -26.1733 26.2656 -76.2997 41.4586 -20.9974 -5.44535 -1.04362e-015 -1.63997e-015 -6.36111e-015 -9.93923e-017 -9.44227e-016 -1.27222e-014 -6.95746e-016 -8.44835e-016 -9.54166e-015 -1.04362e-015 -1.63997e-015 -6.36111e-015 -0.0146279 -8.98247e-005 4.64546e-006 4.96962e-016 5.46658e-016 9.54166e-015 -1.04362e-015 -1.63997e-015 -6.36111e-015 -0.0187286 -0.00117369 5.79634e-005 -2.48481e-016 -2.48481e-016 -3.18055e-015 -1.04362e-015 -1.63997e-015 -6.36111e-015 -0.0122567 -0.0032401 0.000676104 -8.94531e-016 8.94531e-016 -0 -1.04362e-015 -1.63997e-015 -6.36111e-015 -9.93923e-017 -9.44227e-016 -1.27222e-014 -6.95746e-016 -8.44835e-016 -9.54166e-015 4.73286 3.28889 33.0115 47.2377 -4.63967 -25.6208 26.1713 26.2622 76.2951 -38.8265 -21.8686 5.84807 3.97569e-016 4.96962e-016 -6.36111e-015 -5.96354e-016 1.98785e-016 -9.54166e-015 2.20695e-032 1.98785e-016 -6.36111e-015 3.97569e-016 4.96962e-016 -6.36111e-015 0.0149852 -8.86463e-005 2.18464e-006 -3.97569e-016 -1.19271e-015 9.54166e-015 3.97569e-016 4.96962e-016 -6.36111e-015 0.0189928 -0.0011914 -6.23817e-005 -3.12402e-007 1.85431e-007 -8.0966e-008 3.97569e-016 4.96962e-016 -6.36111e-015 0.0122197 -0.00323852 -0.000679152 -3.97569e-016 1.98785e-016 -3.18055e-015 3.97569e-016 4.96962e-016 -6.36111e-015 -5.96354e-016 1.98785e-016 -9.54166e-015 2.20695e-032 1.98785e-016 -6.36111e-015 -8.07193 -20.0857 -16.8288 -168.978 78.3233 166.357 20.599 44.7873 -26.9928 -5.55496e-008 -5.44982e-008 -1.98736e-007 8.1261 -20.5452 16.8353 169.273 78.1598 -166.611 -20.4232 44.6788 26.9471 8.44278e-008 -8.17037e-008 2.97809e-007 
1.62944 27.4289 0.286917 0 18.0768 -0 0.24037 0.10776 -0.257345 0.481223 0.214456 -0.515142 0.481222 0.214437 -0.515141 -6.85921e-005 15.2869 5.4198e-005 3.22264e-007 -4.86401 -3.87788e-007 -6.16602 3.45441 -33.5864 -48.8523 -5.14209 26.6455 -26.1733 26.2656 -76.2998 41.3888 -20.9564 -5.34637 -3.27392e-007 -3.47996e-007 -1.4124e-007 -1.59028e-015 1.3418e-015 6.36111e-015 -5.46658e-016 0 9.54166e-015 -3.27392e-007 -3.47996e-007 -1.4124e-007 -0.0146079 -8.76642e-005 6.23166e-007 2.48481e-016 -9.93923e-017 9.54166e-015 -3.27392e-007 -3.47996e-007 -1.4124e-007 -0.0187739 -0.00117932 5.28405e-005 9.44227e-016 2.48481e-016 -0 -3.27392e-007 -3.47996e-007 -1.4124e-007 -0.0122469 -0.00324838 0.000671917 9.44227e-016 -4.96962e-016 3.18055e-015 -3.27392e-007 -3.47996e-007 -1.4124e-007 -1.59028e-015 1.3418e-015 6.36111e-015 -5.46658e-016 0 9.54166e-015 4.89083 3.5251 32.9574 47.2377 -4.63967 -25.6208 26.1713 26.2621 76.2951 -38.8577 -21.7968 5.73218 -5.96354e-016 3.97569e-016 3.18055e-015 -3.97569e-016 -1.98785e-016 3.18055e-015 3.97569e-016 3.97569e-016 6.36111e-015 -5.96354e-016 3.97569e-016 3.18055e-015 0.0149622 -8.894e-005 -3.86568e-006 -3.31043e-032 -1.98785e-016 -9.54166e-015 -5.96354e-016 3.97569e-016 3.18055e-015 0.0189752 -0.0011918 -4.9979e-005 -9.93923e-016 1.98785e-016 -1.27222e-014 -5.96354e-016 3.97569e-016 3.18055e-015 0.012254 -0.00324331 -0.000677924 -1.98785e-016 -3.97569e-016 9.54166e-015 -5.96354e-016 3.97569e-016 3.18055e-015 -3.97569e-016 -1.98785e-016 3.18055e-015 3.97569e-016 3.97569e-016 6.36111e-015 -8.11666 -20.5865 -16.9245 -169.068 78.1603 166.438 20.6054 44.787 -27.0013 -1.66583e-007 -1.63488e-007 -5.96227e-007 8.17255 -21.0459 16.9324 169.356 77.999 -166.685 -20.4295 44.6786 26.9555 -1.68804e-007 1.63404e-007 -5.95632e-007 
1.62944 27.4232 0.152232 0 18.4277 -0 0.241265 -0.0292557 -0.256438 0.482395 -0.0595869 -0.51275 0.482395 -0.059594 -0.512749 0.000141654 15.9905 -0.000121936 -9.0208e-008 -4.67161 -5.8059e-008 -6.27303 3.69322 -33.5048 -48.7893 -5.12181 26.6055 -26.1733 26.2656 -76.2998 41.319 -20.9155 -5.24737 -3.21429e-007 -3.44962e-007 -1.39973e-007 -1.2424e-015 2.48481e-016 -6.36111e-015 -6.95746e-016 -5.96354e-016 -9.54166e-015 -3.21429e-007 -3.44962e-007 -1.39973e-007 -0.0146019 -8.92666e-005 6.72258e-007 4.96962e-017 -1.78906e-015 -3.18055e-015 -3.21429e-007 -3.44962e-007 -1.39973e-007 -0.0187466 -0.0011714 5.57748e-005 -6.95746e-016 0 3.18055e-015 -3.21429e-007 -3.44962e-007 -1.39973e-007 -0.0122833 -0.00325186 0.000678859 -4.96962e-017 -4.47266e-016 -6.36111e-015 -3.21429e-007 -3.44962e-007 -1.39973e-007 -1.2424e-015 2.48481e-016 -6.36111e-015 -6.95746e-016 -5.96354e-016 -9.54166e-015 5.04926 3.76115 32.9023 47.2377 -4.63967 -25.6208 26.1713 26.2621 76.2951 -38.8888 -21.725 5.61639 -1.98785e-016 0 -3.18055e-015 1.98785e-016 -5.96354e-016 3.18055e-015 -0 0 3.18055e-015 -1.98785e-016 0 -3.18055e-015 0.0149928 -9.15758e-005 -2.43579e-006 7.95139e-016 3.97569e-016 -0 -1.98785e-016 0 -3.18055e-015 0.019039 -0.00119104 -5.78001e-005 1.98785e-016 1.98785e-016 -0 -1.98785e-016 0 -3.18055e-015 0.012273 -0.00324604 -0.000674755 -2.20695e-032 3.97569e-016 3.18055e-015 -1.98785e-016 0 -3.18055e-015 1.98785e-016 -5.96354e-016 3.18055e-015 -0 0 3.18055e-015 -8.16255 -21.0856 -17.0211 -169.154 77.9985 166.514 20.6117 44.7868 -27.0098 -1.11012e-007 -1.08987e-007 -3.97498e-007 8.21993 -21.5468 17.0303 169.438 77.8378 -166.757 -20.4357 44.6782 26.9638 3.66471e-006 2.87094e-007 -2.22189e-007 
1.62943 27.4178 0.0175148 0 18.7785 -0 0.242239 -0.166279 -0.255608 0.483736 -0.333635 -0.510515 0.483737 -0.333643 -0.510515 -0.00015849 16.6936 0.000130947 -3.90818e-007 -4.47929 1.13126e-008 -6.38083 3.93191 -33.4222 -48.7262 -5.10159 26.5654 -26.1733 26.2656 -76.2997 41.2491 -20.8748 -5.14834 -1.98785e-016 4.47266e-016 1.27222e-014 -2.48481e-016 1.98785e-016 2.22639e-014 -1.68967e-015 -4.96962e-017 3.18055e-015 -1.98785e-016 4.47266e-016 1.27222e-014 -0.0146394 -9.08633e-005 -5.14694e-006 -2.82102e-006 -3.76095e-006 2.31157e-007 -1.98785e-016 4.47266e-016 1.27222e-014 -0.0187838 -0.00118315 6.6225e-005 -3.13652e-007 -3.41802e-007 -1.38759e-007 -1.98785e-016 4.47266e-016 1.27222e-014 -0.0122972 -0.00325555 0.000673729 9.93923e-017 -2.48481e-016 -6.36111e-015 -1.98785e-016 4.47266e-016 1.27222e-014 -2.48481e-016 1.98785e-016 2.22639e-014 -1.68967e-015 -4.96962e-017 3.18055e-015 5.20755 3.99716 32.8469 47.2377 -4.63967 -25.6208 26.1713 26.2621 76.2951 -38.9197 -21.6531 5.5007 1.98785e-016 -9.93923e-016 -9.54166e-015 -1.98785e-016 -7.95139e-016 -6.36111e-015 5.96354e-016 -1.59028e-015 -6.36111e-015 1.98785e-016 -9.93923e-016 -9.54166e-015 0.0149869 -8.98955e-005 2.69393e-006 1.98785e-016 -1.39149e-015 1.27222e-014 1.98785e-016 -9.93923e-016 -9.54166e-015 0.0190109 -0.00119105 -6.2748e-005 1.98785e-016 5.96354e-016 -6.36111e-015 1.98785e-016 -9.93923e-016 -9.54166e-015 0.0122371 -0.00324049 -0.000676423 3.97569e-016 3.97569e-016 -6.36111e-015 1.98785e-016 -9.93923e-016 -9.54166e-015 -1.98785e-016 -7.95139e-016 -6.36111e-015 5.96354e-016 -1.59028e-015 -6.36111e-015 -8.20917 -21.5857 -17.1183 -169.24 77.8358 166.59 20.6181 44.7865 -27.0183 2.65527e-007 -4.11225e-007 -1.16581e-007 8.26823 -22.0476 17.1289 169.517 77.6765 -166.827 -20.442 44.6779 26.9722 -4.77083e-015 -3.18055e-015 -0 
